<svg width="2041" height="169" viewBox="0 0 2041 169" fill="none" xmlns="http://www.w3.org/2000/svg">
<g clip-path="url(#clip0_883_41)">
<rect width="2041" height="169" fill="white"/>
<path d="M1815.7 72.8912C1832.35 72.8912 1845.85 59.4103 1845.85 42.7803C1845.85 26.1508 1832.35 12.6699 1815.7 12.6699C1799.05 12.6699 1785.55 26.1508 1785.55 42.7803C1785.55 59.4103 1799.05 72.8912 1815.7 72.8912Z" fill="#0F91FC" fill-opacity="0.2"/>
<path d="M1885.9 258.768H1863.94V131.219L1945.3 -16.8906L1964.57 -6.32607L1885.9 136.846V258.768Z" fill="#0F91FC" fill-opacity="0.2"/>
<path d="M1773.33 258.788H1751.37V152.351L1695 106.118L1708.94 89.1699L1773.33 141.976V258.788Z" fill="#0F91FC" fill-opacity="0.2"/>
<path d="M1814.38 259H1793.99V136.682L1725.02 77.6822L1738.28 62.2139L1814.38 127.322V259Z" fill="#0F91FC" fill-opacity="0.2"/>
<path d="M1849.66 258.396H1827.7V121.091L1915.85 -36L1935.01 -25.2807L1849.66 126.821V258.396Z" fill="#0F91FC" fill-opacity="0.2"/>
<g clip-path="url(#clip1_883_41)">
<path d="M256.806 79.5326C256.999 76.3128 257.804 73.6405 259.223 71.5155C260.641 69.3905 262.446 67.6841 264.639 66.3961C266.831 65.1082 269.281 64.2067 271.989 63.6916C274.761 63.112 277.533 62.8223 280.307 62.8223C282.821 62.8223 285.367 63.0154 287.947 63.4018C290.525 63.7238 292.879 64.4 295.007 65.4302C297.134 66.4606 298.875 67.9094 300.229 69.7769C301.583 71.5799 302.26 73.9946 302.26 77.0211V103.004C302.26 105.258 302.388 107.415 302.647 109.476C302.905 111.536 303.356 113.082 304.001 114.112H290.074C289.816 113.339 289.591 112.567 289.397 111.794C289.268 110.957 289.171 110.12 289.107 109.283C286.915 111.536 284.336 113.114 281.37 114.016C278.404 114.917 275.374 115.368 272.279 115.368C269.893 115.368 267.669 115.078 265.606 114.499C263.543 113.919 261.738 113.017 260.19 111.794C258.643 110.571 257.417 109.025 256.515 107.158C255.678 105.29 255.258 103.069 255.258 100.493C255.258 97.6595 255.742 95.3413 256.709 93.5383C257.74 91.6709 259.03 90.1897 260.577 89.095C262.189 88.0003 263.994 87.1955 265.993 86.6803C268.056 86.1008 270.119 85.65 272.183 85.3281C274.245 85.0061 276.276 84.7485 278.276 84.5553C280.274 84.3622 282.047 84.0723 283.595 83.686C285.142 83.2996 286.367 82.7522 287.27 82.044C288.172 81.2712 288.591 80.1765 288.527 78.7599C288.527 77.2787 288.268 76.1197 287.753 75.2825C287.301 74.3811 286.657 73.7049 285.819 73.2541C285.045 72.739 284.11 72.4169 283.014 72.2882C281.982 72.095 280.854 71.9984 279.63 71.9984C276.922 71.9984 274.794 72.578 273.247 73.737C271.699 74.8962 270.796 76.828 270.539 79.5326H256.806ZM288.527 89.6746C287.947 90.1897 287.205 90.6084 286.303 90.9304C285.464 91.1879 284.529 91.4132 283.498 91.6064C282.531 91.7997 281.499 91.9606 280.403 92.0894C279.307 92.2182 278.21 92.3791 277.115 92.5724C276.083 92.7656 275.052 93.0232 274.02 93.3451C273.053 93.6671 272.183 94.1179 271.409 94.6973C270.699 95.2126 270.119 95.8886 269.668 96.7258C269.216 97.5629 268.991 98.6254 268.991 99.9133C268.991 101.137 269.216 102.167 269.668 103.004C270.119 103.841 270.732 104.518 271.506 105.033C272.279 105.483 273.181 105.805 274.214 105.999C275.245 106.192 276.309 106.288 277.405 106.288C280.113 106.288 282.208 105.838 283.691 104.936C285.174 104.035 286.27 102.972 286.98 101.749C287.688 100.461 288.108 99.1728 288.237 97.8849C288.43 96.597 288.527 95.5667 288.527 94.7939V89.6746Z" fill="#0F91FC"/>
<path d="M219.795 64.1746H232.851V73.4473H233.045C233.689 71.9018 234.559 70.4852 235.656 69.1973C236.752 67.845 238.009 66.7181 239.428 65.8166C240.846 64.8506 242.361 64.1101 243.973 63.595C245.585 63.0799 247.261 62.8223 249.002 62.8223C249.905 62.8223 250.904 62.9832 252 63.3052V76.0552C251.356 75.9264 250.582 75.8298 249.679 75.7655C248.776 75.6367 247.906 75.5723 247.068 75.5723C244.553 75.5723 242.426 75.9909 240.685 76.828C238.944 77.6652 237.526 78.8242 236.429 80.3053C235.398 81.722 234.656 83.3962 234.205 85.3281C233.754 87.2598 233.528 89.3527 233.528 91.6064V114.112H219.795V64.1746Z" fill="#0F91FC"/>
<path d="M126.652 102.328C128.586 102.328 130.295 101.942 131.778 101.169C133.26 100.396 134.485 99.366 135.453 98.078C136.42 96.7902 137.129 95.3413 137.58 93.7315C138.096 92.0572 138.354 90.3186 138.354 88.5156C138.354 86.4549 138.161 84.5231 137.774 82.7201C137.387 80.8527 136.742 79.2106 135.839 77.7939C134.937 76.3772 133.744 75.2504 132.261 74.4132C130.778 73.5761 128.908 73.1576 126.652 73.1576C124.718 73.1576 123.041 73.5439 121.623 74.3166C120.269 75.0893 119.108 76.1518 118.141 77.5041C117.238 78.792 116.561 80.3053 116.11 82.044C115.723 83.7181 115.53 85.489 115.53 87.3564C115.53 89.1595 115.691 90.9625 116.013 92.7656C116.4 94.5042 117.013 96.0819 117.851 97.4986C118.754 98.9152 119.914 100.074 121.333 100.976C122.751 101.877 124.524 102.328 126.652 102.328ZM151.41 110.925C151.41 112.921 151.12 115.207 150.54 117.783C150.024 120.358 148.863 122.741 147.058 124.93C145.252 127.184 142.641 129.084 139.224 130.629C135.807 132.175 131.229 132.948 125.491 132.948C123.041 132.948 120.527 132.626 117.948 131.982C115.433 131.402 113.112 130.468 110.984 129.18C108.921 127.893 107.18 126.218 105.762 124.158C104.408 122.162 103.634 119.747 103.441 116.913H117.077C117.722 119.489 118.979 121.26 120.849 122.226C122.719 123.256 124.879 123.771 127.329 123.771C131.197 123.771 134.002 122.612 135.743 120.294C137.548 117.976 138.418 115.046 138.354 111.504V104.936H138.161C136.678 107.576 134.55 109.54 131.778 110.828C129.07 112.052 126.2 112.663 123.17 112.663C119.431 112.663 116.207 112.019 113.499 110.732C110.791 109.379 108.567 107.576 106.826 105.322C105.085 103.004 103.796 100.332 102.957 97.3054C102.184 94.2145 101.797 90.9625 101.797 87.5496C101.797 84.3299 102.248 81.239 103.151 78.2769C104.118 75.2504 105.504 72.6102 107.309 70.3564C109.115 68.0381 111.339 66.2029 113.983 64.8506C116.69 63.4984 119.785 62.8223 123.267 62.8223C126.555 62.8223 129.424 63.434 131.874 64.6575C134.389 65.881 136.484 67.9416 138.161 70.8394H138.354V64.1746H151.41V110.925Z" fill="#0F91FC"/>
<path d="M47.2205 73.3502H39V64.1739H47.2205V60.3104C47.2205 55.8671 48.6067 52.2288 51.3791 49.3955C54.1515 46.5622 58.3424 45.1455 63.9517 45.1455C65.1767 45.1455 66.4016 45.2099 67.6266 45.3387C68.8517 45.4031 70.0444 45.4675 71.205 45.5319V55.7705C69.5931 55.5774 67.9168 55.4808 66.176 55.4808C64.3063 55.4808 62.9523 55.9316 62.1142 56.833C61.3405 57.6702 60.9536 59.119 60.9536 61.1797V64.1739H70.4313V73.3502H60.9536V114.112H47.2205V73.3502ZM78.7485 64.1739H92.4816V114.112H78.7485V64.1739ZM92.4816 56.4467H78.7485V45.1455H92.4816V56.4467Z" fill="#0F91FC"/>
<path d="M185.24 65.2404C189.704 65.2404 193.323 61.6263 193.323 57.168C193.323 52.7098 189.704 49.0957 185.24 49.0957C180.776 49.0957 177.158 52.7098 177.158 57.168C177.158 61.6263 180.776 65.2404 185.24 65.2404Z" fill="#0F91FC"/>
<path d="M204.062 115.072H198.174V80.8775L219.987 41.1709L225.15 44.0031L204.062 82.3859V115.072Z" fill="#0F91FC"/>
<path d="M173.884 115.077H167.994V86.5426L152.883 74.1481L156.619 69.6045L173.884 83.7611V115.077Z" fill="#0F91FC"/>
<path d="M184.886 115.134H179.422V82.342L160.93 66.5248L164.486 62.3779L184.886 79.8327V115.134Z" fill="#0F91FC"/>
<path d="M194.345 114.972H188.457V78.1624L212.09 36.0479L217.226 38.9216L194.345 79.6985V114.972Z" fill="#0F91FC"/>
</g>
</g>
<defs>
<clipPath id="clip0_883_41">
<rect width="2041" height="169" fill="white"/>
</clipPath>
<clipPath id="clip1_883_41">
<rect width="265" height="97" fill="white" transform="translate(39 36)"/>
</clipPath>
</defs>
</svg>
