<svg width="179" height="192" viewBox="0 0 179 192" fill="none" xmlns="http://www.w3.org/2000/svg">
    <path d="M89 12L160.88 53.5V136.5L89 178L17.1199 136.5V53.5L89 12Z" fill="url(#paint0_linear_262_739)"/>
    <path d="M78.9612 4.38589L82.6005 10.6894L80.3914 11.9648L76.7521 5.66129L76.5021 5.22828L76.0691 5.47828L73.831 6.77047L72.9543 5.252L80.5056 0.892232L81.3823 2.41069L79.1442 3.70288L78.7112 3.95288L78.9612 4.38589ZM15.2845 40.4854L14.8515 40.7354L15.1015 41.1684L16.0042 42.732L16.2542 43.165L16.6873 42.915L20.059 40.9684L20.8981 42.4217L17.5263 44.3684L17.0933 44.6184L17.3433 45.0514L18.7784 47.5371L16.5694 48.8125L11.8034 40.5575L18.3514 36.777L19.1905 38.2303L15.2845 40.4854ZM43.1375 28.4565L40.5439 23.9642L42.7008 22.7189L45.3471 27.3024C46.085 28.5805 46.2615 29.7258 45.9623 30.7712C45.6619 31.8209 44.8966 32.7357 43.5769 33.4976C42.2572 34.2595 41.0824 34.4648 40.0231 34.2002C38.9682 33.9366 38.0646 33.2111 37.3267 31.933L34.6804 27.3495L36.8894 26.0741L39.4831 30.5664C39.8878 31.2674 40.3563 31.8031 40.9203 32.0351L40.9203 32.0351L40.9285 32.0384C41.5123 32.2665 42.1065 32.183 42.6661 31.8599C43.2241 31.5377 43.5927 31.0664 43.6772 30.4473C43.7687 29.8358 43.5426 29.1581 43.1375 28.4565ZM34.3488 35.7892L33.2672 33.9159L35.0724 32.8737L36.9147 36.0648C36.6268 36.6102 36.2385 37.136 35.7447 37.6414C35.1771 38.2224 34.5713 38.697 33.9275 39.0687C33.0163 39.5948 32.1056 39.8719 31.1914 39.9149C30.271 39.9493 29.4278 39.7554 28.6514 39.3357C27.8823 38.9045 27.2523 38.2727 26.7624 37.4242C26.2721 36.5748 26.043 35.7177 26.059 34.8456C26.0788 33.9559 26.336 33.1278 26.8381 32.3526L26.8392 32.3508C27.3462 31.5606 28.0569 30.8956 28.9859 30.3592C29.8314 29.8711 30.6535 29.5878 31.4545 29.4947L31.4545 29.4947L31.4618 29.4938C32.0973 29.4103 32.7038 29.446 33.2853 29.5988L32.6334 31.5328C31.7312 31.3238 30.8703 31.4349 30.0792 31.8916C29.3085 32.3365 28.7861 32.9524 28.5827 33.7457C28.3792 34.5392 28.542 35.3447 28.9976 36.1337C29.4438 36.9066 30.0506 37.4433 30.8274 37.6786L30.8274 37.6786L30.8327 37.6801C31.623 37.91 32.4133 37.7793 33.1731 37.3407C33.6201 37.0826 34.0011 36.7496 34.3126 36.3434L34.5158 36.0784L34.3488 35.7892ZM52.363 25.3433L52.1243 25.2271L51.8943 25.3599L51.0604 25.8414L50.6274 26.0914L50.8774 26.5244L51.9514 28.3846L49.7424 29.66L44.9764 21.4051L48.9345 19.1199C49.7301 18.6605 50.4776 18.4039 51.1799 18.3297C51.8797 18.2556 52.494 18.3644 53.0389 18.6418L53.2657 18.1962L53.0389 18.6418C53.5824 18.9184 54.0353 19.3556 54.3941 19.977C54.7312 20.5609 54.8819 21.1258 54.8697 21.6786C54.8574 22.2346 54.6873 22.7782 54.3415 23.3163L54.0362 23.7914L54.5448 24.0369L57.234 25.3347L54.9989 26.6252L52.363 25.3433ZM58.6898 24.4942L57.5324 14.1558L59.9888 12.7376L68.3634 18.9092L66.1432 20.191L64.8799 19.1706L64.613 18.9549L64.3157 19.1265L60.8498 21.1276L60.5526 21.2992L60.6058 21.6383L60.8579 23.2425L58.6898 24.4942ZM48.4876 21.3851L48.0546 21.6351L48.3046 22.0681L49.5383 24.205L49.7883 24.638L50.2214 24.388L51.3419 23.7411C51.8125 23.4694 52.1876 23.1173 52.3454 22.654L52.3455 22.6541L52.349 22.6431C52.4975 22.1717 52.4096 21.7015 52.159 21.2674C51.9097 20.8357 51.5479 20.5242 51.0644 20.4268C50.5784 20.3209 50.0812 20.4651 49.6082 20.7381L48.4876 21.3851ZM62.6899 18.2665L63.3214 17.9019L62.7537 17.4442L60.5437 15.6625L59.5362 14.8502L59.7358 16.1289L60.1738 18.9337L60.2863 19.6542L60.9178 19.2896L62.6899 18.2665ZM69.0895 7.48335L71.2985 6.20796L76.0645 14.4629L73.8555 15.7383L69.0895 7.48335ZM20.1889 35.7161L22.3979 34.4407L27.1639 42.6957L24.9549 43.9711L20.1889 35.7161Z" stroke="#055994"/>
    <path d="M99.113 187.317L95.4737 181.014L97.6828 179.738L101.322 186.042L101.572 186.475L102.005 186.225L104.243 184.933L105.12 186.451L97.5686 190.811L96.6919 189.292L98.93 188L99.363 187.75L99.113 187.317ZM162.79 151.218L163.223 150.968L162.973 150.535L162.07 148.971L161.82 148.538L161.387 148.788L158.015 150.735L157.176 149.281L160.548 147.335L160.981 147.085L160.731 146.652L159.296 144.166L161.505 142.891L166.271 151.146L159.723 154.926L158.884 153.473L162.79 151.218ZM134.937 163.247L137.53 167.739L135.373 168.984L132.727 164.401C131.989 163.123 131.813 161.977 132.112 160.932C132.412 159.882 133.178 158.967 134.497 158.205C135.817 157.444 136.992 157.238 138.051 157.503C139.106 157.767 140.01 158.492 140.748 159.77L143.394 164.354L141.185 165.629L138.591 161.137C138.186 160.436 137.718 159.9 137.154 159.668L137.154 159.668L137.146 159.665C136.562 159.437 135.968 159.52 135.408 159.843C134.85 160.165 134.482 160.637 134.397 161.256C134.306 161.867 134.532 162.545 134.937 163.247ZM143.725 155.914L144.807 157.787L143.002 158.829L141.159 155.638C141.447 155.093 141.836 154.567 142.33 154.062C142.897 153.481 143.503 153.006 144.147 152.634C145.058 152.108 145.969 151.831 146.883 151.788C147.803 151.754 148.646 151.948 149.423 152.367C150.192 152.799 150.822 153.43 151.312 154.279C151.802 155.128 152.031 155.985 152.015 156.857C151.995 157.747 151.738 158.575 151.236 159.351L151.235 159.352C150.728 160.143 150.017 160.808 149.088 161.344C148.243 161.832 147.421 162.115 146.62 162.208L146.62 162.208L146.612 162.209C145.977 162.293 145.37 162.257 144.789 162.104L145.441 160.17C146.343 160.379 147.204 160.268 147.995 159.812C148.766 159.367 149.288 158.751 149.492 157.957C149.695 157.164 149.532 156.358 149.077 155.569C148.63 154.797 148.024 154.26 147.247 154.025L147.247 154.025L147.242 154.023C146.451 153.793 145.661 153.924 144.901 154.362C144.454 154.621 144.073 154.953 143.762 155.36L143.558 155.625L143.725 155.914ZM125.711 166.36L125.95 166.476L126.18 166.343L127.014 165.862L127.447 165.612L127.197 165.179L126.123 163.318L128.332 162.043L133.098 170.298L129.14 172.583C128.344 173.043 127.597 173.299 126.894 173.373C126.194 173.447 125.58 173.339 125.035 173.061L124.809 173.507L125.035 173.061C124.492 172.785 124.039 172.348 123.68 171.726C123.343 171.142 123.192 170.577 123.205 170.024C123.217 169.469 123.387 168.925 123.733 168.387L124.038 167.912L123.529 167.666L120.84 166.368L123.075 165.078L125.711 166.36ZM119.384 167.209L120.542 177.547L118.085 178.965L109.711 172.794L111.931 171.512L113.194 172.533L113.461 172.748L113.758 172.577L117.224 170.575L117.522 170.404L117.468 170.065L117.216 168.461L119.384 167.209ZM129.587 170.318L130.02 170.068L129.77 169.635L128.536 167.498L128.286 167.065L127.853 167.315L126.732 167.962C126.262 168.234 125.887 168.586 125.729 169.049L125.729 169.049L125.725 169.06C125.577 169.531 125.665 170.002 125.915 170.436C126.165 170.867 126.526 171.179 127.01 171.276C127.496 171.382 127.993 171.238 128.466 170.965L129.587 170.318ZM115.384 173.437L114.753 173.801L115.32 174.259L117.531 176.041L118.538 176.853L118.338 175.574L117.9 172.769L117.788 172.049L117.156 172.414L115.384 173.437ZM108.985 184.22L106.776 185.495L102.01 177.24L104.219 175.965L108.985 184.22ZM157.885 155.987L155.676 157.262L150.91 149.007L153.119 147.732L157.885 155.987Z" stroke="#055994"/>
    <path d="M162.475 40.966L158.836 47.2695L156.627 45.9941L160.266 39.6906L160.516 39.2576L160.083 39.0076L157.845 37.7154L158.721 36.197L166.273 40.5568L165.396 42.0752L163.158 40.783L162.725 40.533L162.475 40.966ZM99.3735 3.8702L98.9404 3.6202L98.6904 4.05321L97.7877 5.61681L97.5377 6.04982L97.9707 6.29982L101.342 8.2465L100.503 9.69981L97.1316 7.75313L96.6986 7.50313L96.4486 7.93615L95.0135 10.4218L92.8045 9.14645L97.5705 0.891492L104.118 4.672L103.279 6.12531L99.3735 3.8702ZM123.717 21.9771L126.311 17.4848L128.468 18.7301L125.822 23.3136C125.084 24.5917 124.18 25.3172 123.125 25.5808C122.066 25.8455 120.891 25.6402 119.571 24.8783C118.252 24.1163 117.486 23.2015 117.186 22.1519C116.887 21.1064 117.063 19.9611 117.801 18.6831L120.447 14.0995L122.656 15.3749L120.063 19.8672C119.658 20.5682 119.428 21.2418 119.51 21.8463L119.509 21.8463L119.511 21.855C119.605 22.4747 119.975 22.9475 120.534 23.2706C121.092 23.5928 121.685 23.6763 122.263 23.4399C122.838 23.2134 123.312 22.6787 123.717 21.9771ZM112.973 18.0322L114.054 16.1589L115.859 17.2011L114.017 20.3922C113.401 20.4155 112.751 20.3422 112.066 20.1672C111.28 19.9662 110.566 19.6788 109.922 19.3072C109.011 18.7811 108.315 18.131 107.821 17.3607C107.331 16.5808 107.077 15.7536 107.053 14.8714C107.041 13.9898 107.274 13.1283 107.764 12.2798C108.254 11.4304 108.882 10.8034 109.645 10.3813C110.425 9.95354 111.271 9.76224 112.193 9.80943L112.196 9.80952C113.133 9.85349 114.065 10.1365 114.994 10.6729C115.839 11.161 116.496 11.7313 116.977 12.3784L116.977 12.3785L116.981 12.3843C117.371 12.893 117.644 13.4361 117.802 14.016L115.801 14.4185C115.531 13.5326 115.004 12.8426 114.213 12.3858C113.443 11.9409 112.648 11.7964 111.859 12.0169C111.07 12.2374 110.454 12.7811 109.999 13.5702C109.552 14.3431 109.391 15.137 109.576 15.9273L109.576 15.9273L109.577 15.9327C109.773 16.7321 110.281 17.3512 111.041 17.7898C111.488 18.0479 111.967 18.2114 112.475 18.278L112.806 18.3215L112.973 18.0322ZM131.026 28.4101L131.007 28.1452L130.777 28.0125L129.944 27.531L129.511 27.281L129.261 27.714L128.187 29.5743L125.977 28.2989L130.743 20.0439L134.702 22.3291C135.497 22.7885 136.093 23.3076 136.509 23.8786C136.923 24.4477 137.136 25.0341 137.168 25.6446L137.667 25.6182L137.168 25.6446C137.2 26.2537 137.048 26.8645 136.689 27.4858C136.352 28.0698 135.938 28.4827 135.453 28.7486C134.966 29.0159 134.41 29.1404 133.771 29.11L133.207 29.0831L133.248 29.6464L133.469 32.6242L131.234 31.3337L131.026 28.4101ZM134.925 33.4647L143.299 27.2932L145.756 28.7114L144.598 39.0497L142.378 37.7679L142.63 36.1637L142.684 35.8247L142.386 35.6531L138.92 33.652L138.623 33.4804L138.356 33.696L137.093 34.7165L134.925 33.4647ZM132.516 23.0748L132.083 22.8248L131.833 23.2578L130.6 25.3947L130.35 25.8277L130.783 26.0777L131.903 26.7247C132.374 26.9964 132.866 27.1451 133.346 27.0502L133.346 27.0503L133.358 27.0478C133.84 26.9407 134.203 26.6295 134.454 26.1954C134.703 25.7637 134.792 25.2946 134.635 24.8272C134.483 24.3533 134.11 23.9948 133.637 23.7217L132.516 23.0748ZM142.318 33.815L142.95 34.1796L143.062 33.4591L143.5 30.6543L143.7 29.3757L142.693 30.1879L140.482 31.9696L139.915 32.4273L140.546 32.7919L142.318 33.815ZM154.857 33.9656L157.066 35.241L152.3 43.496L150.091 42.2206L154.857 33.9656ZM105.956 5.73287L108.165 7.00826L103.399 15.2632L101.19 13.9878L105.956 5.73287Z" stroke="#055994"/>
    <path d="M175.02 132.746L167.741 132.746L167.741 130.195L175.02 130.195L175.52 130.195L175.52 129.695L175.52 127.111L177.273 127.111L177.273 135.831L175.52 135.831L175.52 133.246L175.52 132.746L175.02 132.746ZM175.595 59.5508L175.595 59.0508L175.095 59.0508L173.289 59.0508L172.789 59.0508L172.789 59.5508L172.789 63.4441L171.111 63.4441L171.111 59.5508L171.111 59.0508L170.611 59.0508L167.741 59.0508L167.741 56.5L177.273 56.5L177.273 64.061L175.595 64.061L175.595 59.5508ZM172.086 89.6866L177.273 89.6866L177.273 92.1772L171.98 92.1772C170.505 92.1772 169.424 91.7574 168.669 90.9756C167.91 90.1906 167.5 89.0705 167.5 87.5467C167.5 86.0228 167.91 84.9027 168.669 84.1177C169.424 83.3359 170.505 82.9161 171.98 82.9161L177.273 82.9161L177.273 85.4669L172.086 85.4669C171.276 85.4669 170.578 85.6047 170.095 85.9772L170.095 85.9771L170.088 85.9827C169.599 86.3742 169.374 86.9306 169.374 87.5767C169.374 88.2211 169.598 88.7759 170.092 89.1586C170.576 89.5436 171.276 89.6866 172.086 89.6866ZM170.13 78.409L172.293 78.409L172.293 80.4934L168.608 80.4934C168.28 79.9713 168.019 79.3722 167.828 78.6918C167.608 77.9098 167.5 77.1478 167.5 76.4045C167.5 75.3522 167.716 74.4251 168.135 73.6118C168.566 72.7975 169.155 72.1643 169.907 71.7017C170.665 71.2513 171.527 71.0216 172.507 71.0216C173.488 71.0216 174.345 71.2517 175.092 71.7017C175.852 72.1637 176.441 72.8004 176.861 73.6229L176.862 73.6248C177.293 74.4589 177.514 75.4069 177.514 76.4797C177.514 77.4559 177.348 78.3095 177.028 79.0498L177.028 79.0498L177.025 79.0566C176.78 79.6487 176.446 80.156 176.022 80.5833L174.673 79.0517C175.306 78.3749 175.64 77.5737 175.64 76.6602C175.64 75.7704 175.368 75.01 174.783 74.4372C174.197 73.8642 173.418 73.6025 172.507 73.6025C171.615 73.6025 170.846 73.8596 170.254 74.4148L170.254 74.4147L170.25 74.4185C169.656 74.9881 169.374 75.7378 169.374 76.6151C169.374 77.1313 169.472 77.6277 169.668 78.1006L169.796 78.409L170.13 78.409ZM170.169 99.2328L170.389 99.0841L170.389 98.8186L170.389 97.8557L170.389 97.3557L169.889 97.3557L167.741 97.3557L167.741 94.8049L177.273 94.8049L177.273 99.3753C177.273 100.294 177.121 101.07 176.835 101.715C176.549 102.358 176.147 102.836 175.635 103.169L175.907 103.588L175.635 103.169C175.123 103.501 174.518 103.675 173.801 103.675C173.127 103.675 172.562 103.523 172.089 103.236C171.614 102.947 171.228 102.528 170.935 101.96L170.676 101.458L170.209 101.775L167.741 103.455L167.741 100.875L170.169 99.2328ZM167.741 105.137L177.273 109.303L177.273 112.14L167.741 116.307L167.741 113.743L169.256 113.159L169.577 113.036L169.577 112.693L169.577 108.69L169.577 108.347L169.256 108.224L167.741 107.64L167.741 105.137ZM175.535 97.8557L175.535 97.3557L175.035 97.3557L172.567 97.3557L172.067 97.3557L172.067 97.8557L172.067 99.1496C172.067 99.693 172.185 100.194 172.507 100.562L172.507 100.562L172.515 100.571C172.848 100.935 173.3 101.094 173.801 101.094C174.299 101.094 174.75 100.936 175.076 100.566C175.411 100.198 175.535 99.6958 175.535 99.1496L175.535 97.8557ZM171.134 111.715L171.134 112.444L171.814 112.181L174.463 111.158L175.67 110.691L174.463 110.225L171.814 109.202L171.134 108.939L171.134 109.668L171.134 111.715ZM177.273 122.648L177.273 125.199L167.741 125.199L167.741 122.648L177.273 122.648ZM177.273 66.1827L177.273 68.7335L167.741 68.7335L167.741 66.1827L177.273 66.1827Z" stroke="#055994"/>
    <path d="M2.9941 59.5839L10.2727 59.5839L10.2727 62.1347L2.9941 62.1347L2.4941 62.1347L2.4941 62.6347L2.4941 65.2191L0.740728 65.2191L0.740728 56.4995L2.4941 56.4995L2.4941 59.0839L2.4941 59.5839L2.9941 59.5839ZM2.41887 132.779L2.41887 133.279L2.91887 133.279L4.72436 133.279L5.22436 133.279L5.22436 132.779L5.22436 128.886L6.9025 128.886L6.9025 132.779L6.9025 133.279L7.4025 133.279L10.2727 133.279L10.2727 135.83L0.740731 135.83L0.740731 128.269L2.41887 128.269L2.41887 132.779ZM5.92802 102.643L0.740732 102.643L0.740732 100.153L6.03334 100.153C7.50913 100.153 8.58925 100.573 9.345 101.354C10.1038 102.139 10.5135 103.26 10.5135 104.783C10.5135 106.307 10.1038 107.427 9.345 108.212C8.58925 108.994 7.50913 109.414 6.03334 109.414L0.740732 109.414L0.740732 106.863L5.92802 106.863C6.73745 106.863 7.43567 106.725 7.91854 106.353L7.91859 106.353L7.92549 106.347C8.41497 105.956 8.63974 105.399 8.63974 104.753C8.63974 104.109 8.41582 103.554 7.92195 103.171C7.43816 102.786 6.73815 102.643 5.92802 102.643ZM7.88396 113.921L5.72087 113.921L5.72087 111.837L9.40561 111.837C9.73398 112.359 9.99516 112.958 10.186 113.638C10.4053 114.42 10.5135 115.182 10.5135 115.926C10.5135 116.978 10.2981 117.905 9.87821 118.718C9.44779 119.533 8.85828 120.166 8.10666 120.628C7.34867 121.079 6.48649 121.308 5.50674 121.308C4.52596 121.308 3.66915 121.078 2.92192 120.628C2.16126 120.166 1.57273 119.53 1.15237 118.707L1.1514 118.705C0.720582 117.871 0.5 116.923 0.5 115.85C0.5 114.874 0.665719 114.021 0.985585 113.28L0.985635 113.28L0.988471 113.273C1.23396 112.681 1.56811 112.174 1.99118 111.747L3.34018 113.278C2.70799 113.955 2.37373 114.756 2.37373 115.67C2.37373 116.56 2.64592 117.32 3.23115 117.893C3.81667 118.466 4.59556 118.728 5.50674 118.728C6.39916 118.728 7.16739 118.47 7.75951 117.915L7.75954 117.915L7.7635 117.912C8.35778 117.342 8.63974 116.592 8.63974 115.715C8.63974 115.199 8.54188 114.702 8.34583 114.23L8.21792 113.921L7.88396 113.921ZM7.84463 93.0973L7.62469 93.246L7.62469 93.5115L7.62469 94.4744L7.62469 94.9744L8.12469 94.9744L10.2727 94.9744L10.2727 97.5252L0.740732 97.5252L0.740732 92.9548C0.740732 92.036 0.892306 91.2604 1.1791 90.6151C1.46492 89.972 1.86625 89.4944 2.37889 89.1612L2.1064 88.742L2.3789 89.1612C2.89027 88.8288 3.4953 88.6552 4.2128 88.6552C4.88709 88.6552 5.45162 88.8072 5.9243 89.0941C6.39961 89.3827 6.78534 89.8019 7.07846 90.3704L7.33728 90.8723L7.80418 90.5546L10.2727 88.8746L10.2727 91.4555L7.84463 93.0973ZM10.2727 87.1936L0.740732 83.0267L0.740732 80.1903L10.2727 76.0235L10.2727 78.5872L8.75742 79.171L8.43716 79.2944L8.43716 79.6376L8.43716 83.6397L8.43716 83.9829L8.75742 84.1063L10.2727 84.6901L10.2727 87.1936ZM2.47905 94.4744L2.47905 94.9744L2.97905 94.9744L5.44655 94.9744L5.94655 94.9744L5.94655 94.4744L5.94655 93.1805C5.94655 92.6371 5.82914 92.1362 5.50688 91.7679L5.50698 91.7678L5.49917 91.7593C5.1652 91.395 4.71403 91.2361 4.2128 91.2361C3.7143 91.2361 3.26365 91.3937 2.93754 91.7636C2.6028 92.1317 2.47905 92.6343 2.47905 93.1805L2.47905 94.4744ZM6.87939 80.6155L6.87939 79.8863L6.19919 80.1491L3.55114 81.1722L2.34399 81.6386L3.55114 82.105L6.19919 83.1281L6.87939 83.3909L6.87939 82.6617L6.87939 80.6155ZM0.740728 69.6818L0.740728 67.131L10.2727 67.131L10.2727 69.6818L0.740728 69.6818ZM0.740731 126.147L0.740731 123.597L10.2727 123.597L10.2727 126.147L0.740731 126.147Z" stroke="#055994"/>
    <path d="M15.6013 150.737L19.2406 144.434L21.4497 145.709L17.8103 152.012L17.5603 152.445L17.9933 152.695L20.2315 153.988L19.3548 155.506L11.8035 151.146L12.6801 149.628L14.9183 150.92L15.3513 151.17L15.6013 150.737ZM78.7027 187.833L79.1357 188.083L79.3857 187.65L80.2885 186.086L80.5385 185.653L80.1055 185.403L76.7337 183.457L77.5728 182.003L80.9445 183.95L81.3775 184.2L81.6275 183.767L83.0627 181.281L85.2717 182.557L80.5057 190.812L73.9577 187.031L74.7967 185.578L78.7027 187.833ZM54.3589 169.726L51.7652 174.218L49.6083 172.973L52.2546 168.389C52.9925 167.111 53.8961 166.386 54.9511 166.122C56.0103 165.858 57.1852 166.063 58.5049 166.825C59.8246 167.587 60.5898 168.502 60.8902 169.551C61.1894 170.597 61.0129 171.742 60.275 173.02L57.6287 177.604L55.4197 176.328L58.0133 171.836C58.418 171.135 58.6478 170.461 58.5666 169.857L58.5667 169.857L58.5654 169.848C58.471 169.228 58.1016 168.756 57.542 168.433C56.984 168.11 56.3915 168.027 55.8131 168.263C55.2378 168.49 54.764 169.024 54.3589 169.726ZM65.1035 173.671L64.022 175.544L62.2169 174.502L64.0592 171.311C64.6756 171.288 65.325 171.361 66.0097 171.536C66.7965 171.737 67.5105 172.024 68.1543 172.396C69.0656 172.922 69.7608 173.572 70.2552 174.342C70.7452 175.122 70.9988 175.949 71.0236 176.832C71.0347 177.713 70.8025 178.575 70.3126 179.423C69.8223 180.273 69.1945 180.9 68.4313 181.322C67.6508 181.75 66.8051 181.941 65.8827 181.894L65.8806 181.894C64.9428 181.85 64.0115 181.567 63.0824 181.03C62.237 180.542 61.5806 179.972 61.0995 179.325L61.0995 179.325L61.095 179.319C60.705 178.81 60.4327 178.267 60.2742 177.687L62.2751 177.285C62.5451 178.17 63.0718 178.861 63.8629 179.317C64.6336 179.762 65.4282 179.907 66.2168 179.686C67.0059 179.466 67.6219 178.922 68.0775 178.133C68.5237 177.36 68.6851 176.566 68.5005 175.776L68.5005 175.776L68.4992 175.77C68.3031 174.971 67.7948 174.352 67.035 173.913C66.588 173.655 66.1091 173.492 65.6016 173.425L65.2705 173.382L65.1035 173.671ZM47.05 163.293L47.0688 163.558L47.2987 163.691L48.1326 164.172L48.5656 164.422L48.8156 163.989L49.8897 162.129L52.0987 163.404L47.3327 171.659L43.3746 169.374C42.579 168.915 41.983 168.396 41.5676 167.825C41.1536 167.255 40.9406 166.669 40.9084 166.059L40.4091 166.085L40.9084 166.058C40.8762 165.449 41.0284 164.839 41.3871 164.217C41.7242 163.633 42.1381 163.22 42.623 162.955C43.1106 162.687 43.6664 162.563 44.3053 162.593L44.8694 162.62L44.8277 162.057L44.6071 159.079L46.8422 160.369L47.05 163.293ZM43.1513 158.238L34.7767 164.41L32.3203 162.992L33.4777 152.653L35.6979 153.935L35.4458 155.539L35.3926 155.878L35.6898 156.05L39.1557 158.051L39.453 158.223L39.7199 158.007L40.9832 156.987L43.1513 158.238ZM45.5598 168.628L45.9928 168.878L46.2428 168.445L47.4766 166.308L47.7266 165.875L47.2936 165.625L46.173 164.978C45.7024 164.707 45.2099 164.558 44.7298 164.653L44.7298 164.653L44.7185 164.655C44.236 164.762 43.8728 165.074 43.6222 165.508C43.373 165.939 43.2841 166.409 43.4415 166.876C43.5928 167.35 43.9663 167.708 44.4392 167.981L45.5598 168.628ZM35.7578 157.888L35.1263 157.524L35.0138 158.244L34.5758 161.049L34.3762 162.327L35.3837 161.515L37.5937 159.733L38.1614 159.276L37.5299 158.911L35.7578 157.888ZM23.2196 157.737L21.0106 156.462L25.7766 148.207L27.9856 149.483L23.2196 157.737ZM72.1202 185.97L69.9112 184.695L74.6772 176.44L76.8862 177.715L72.1202 185.97Z" stroke="#055994"/>
    <path d="M78.8303 136.923C87.5966 142.049 97.6485 140.069 97.6485 140.069C110.155 137.739 120.324 126.789 119.038 124.109C118.921 123.76 110.623 123.876 107.233 125.158C96.9472 129.002 93.9083 129.817 85.8433 132.264C83.6225 132.963 77.6615 134.594 77.4277 135.409C77.4277 136.108 78.4797 136.691 78.8303 136.923Z" fill="white" stroke="#005280" stroke-miterlimit="10"/>
    <path d="M84.3252 131.216C85.7278 133.778 92.1564 132.73 92.7408 132.613C97.8837 131.681 105.364 129.002 105.014 125.973C104.663 123.061 96.7148 119.683 91.572 121.547C86.6629 123.178 82.9226 128.769 84.3252 131.216Z" fill="#191919" stroke="black" stroke-width="0.5" stroke-miterlimit="10"/>
    <path d="M101.506 130.399C103.843 128.885 104.428 126.438 105.129 123.759C105.48 122.245 107.233 115.372 104.428 113.857C102.324 112.692 98.3497 115.372 96.3627 117.818C93.09 121.779 91.8043 128.535 94.7264 130.865C96.4796 132.146 99.5186 131.564 101.506 130.399Z" fill="#CF2445" stroke="black" stroke-width="0.5" stroke-miterlimit="10"/>
    <path d="M80.5828 107.218C77.6607 104.072 82.4529 100.578 80.1153 92.3066C79.1802 89.0448 76.8425 83.5697 74.1542 78.91C72.6347 76.2307 71.9334 75.2987 72.2841 73.9008C73.4529 69.7071 83.0373 64.9309 90.0503 67.0278C95.7776 68.7752 98.6997 74.4833 97.7646 79.376C96.8295 84.3851 92.388 85.783 92.8555 88.9283C93.5568 93.2385 102.206 92.3066 104.661 98.7137C105.128 99.7621 105.479 100.927 105.011 102.208C102.907 107.917 85.375 112.343 80.5828 107.218Z" fill="white" stroke="#005280" stroke-miterlimit="10"/>
    <path d="M72.7527 69.5908C75.3241 70.5228 75.9086 73.901 77.6618 79.6091C79.8826 86.7152 80.5839 85.7832 81.6358 90.3264C82.6878 94.7531 83.7397 99.8788 81.1683 102.558C79.7657 104.072 78.7138 103.257 76.7267 105.121C75.2073 106.402 75.0904 107.451 72.6358 112.576C70.2982 117.586 70.1813 117.12 69.9475 118.285C69.0125 122.362 70.0644 126.905 70.0644 126.905C70.0644 126.905 67.6099 125.973 66.2073 126.672C65.0384 127.254 65.2722 128.652 64.6878 128.652C63.0514 128.885 58.3761 114.207 56.1553 105.004C55.8047 103.607 55.3371 101.859 53.9345 100.578C51.5969 98.4809 48.6748 99.4128 47.3891 97.4324C46.8047 96.5005 47.1553 95.8016 47.1553 94.0542C47.0384 91.4913 46.1034 90.2099 43.8826 85.7832C41.0774 80.0751 41.8956 80.7741 39.9086 76.9298C37.2202 72.0372 36.0514 71.4547 35.7008 68.6589C35.5839 67.8434 34.5319 63.5332 36.4021 60.6209C38.9735 56.3107 45.5189 55.7283 50.0774 56.6602C54.6358 57.5921 58.3761 61.2034 61.7657 64.4652C64.1034 66.6785 66.3241 69.3578 69.8306 69.5908C71.3501 69.7073 71.7008 69.2413 72.7527 69.5908Z" fill="#1E77B8" stroke="#005280" stroke-width="0.5" stroke-miterlimit="10"/>
    <path d="M87.0118 65.9791C87.2456 67.377 88.9989 66.5616 90.9859 69.0079C91.804 70.0564 92.5053 72.3862 92.856 75.182C93.3235 79.9582 90.6352 81.8221 90.0508 86.4818C89.817 88.1126 90.0508 90.2095 91.804 93.4713C93.9079 97.0825 95.895 96.966 99.6352 100.228C100.687 101.16 102.44 99.4124 107.116 104.422C112.025 109.664 114.362 112.227 115.298 113.042C118.921 116.304 120.557 116.886 120.557 118.634C120.557 121.196 116.466 123.06 115.765 123.41C110.622 125.74 105.947 123.526 104.895 125.507C104.427 126.322 104.895 127.487 105.479 128.186C108.168 131.215 119.155 129.234 124.414 122.361C127.921 117.818 127.804 112.459 127.804 110.363C127.687 104.189 125.116 103.14 123.362 94.0537C122.427 89.5105 121.726 85.8993 122.895 81.3561C124.181 76.114 127.57 70.5223 130.609 70.7553C131.895 70.8718 133.181 73.7841 135.869 75.0655C137.739 75.9975 140.544 77.9778 141.83 77.2789C144.401 75.7645 141.83 63.7658 136.687 57.5917C135.285 55.9608 133.298 53.5145 129.908 52.699C124.064 51.1846 121.492 56.1938 112.843 56.3103C107.583 56.4268 107.934 55.1454 103.025 55.6113C94.4924 56.4268 86.5443 62.8338 87.0118 65.9791Z" fill="#1E77B8" stroke="#005280" stroke-width="0.5" stroke-miterlimit="10"/>
    <path d="M64.2207 129.352C63.8701 127.604 65.5064 125.973 65.974 125.391C71.2337 119.683 70.5324 110.713 75.4415 104.772C81.4025 97.5492 94.7272 96.0348 104.429 99.7626C114.714 103.607 123.948 114.208 121.61 120.149C119.857 124.575 111.325 126.556 105.247 126.09C97.6493 125.507 91.922 120.848 89.3506 123.294C88.6493 123.993 88.8831 124.575 88.2986 126.323C86.7792 131.215 81.8701 136.574 76.7272 136.691C76.0259 136.691 72.6363 137.157 67.8441 133.662C66.3246 132.38 64.5714 130.633 64.2207 129.352Z" fill="white" stroke="#005280" stroke-miterlimit="10"/>
    <path d="M86.4275 110.595C88.7652 109.78 89.5833 107.566 89.934 106.285C90.5184 103.722 90.2846 101.509 88.2976 100.926C85.7262 100.111 78.5963 102.674 78.0119 105.003C77.5444 106.867 79.4145 108.848 79.882 109.197C81.8691 110.828 84.2067 111.41 86.4275 110.595Z" fill="#191919" stroke="black" stroke-width="0.5" stroke-miterlimit="10"/>
    <path d="M79.2969 108.847C79.9982 109.429 80.8164 109.546 81.5177 109.08C82.219 108.614 82.3358 107.798 82.3358 107.798C82.4527 107.332 82.219 106.517 81.6345 106.284C81.2839 106.167 80.6995 106.284 80.4657 106.633C80.3488 106.866 80.4657 106.983 80.4657 107.099" stroke="white" stroke-width="0.5" stroke-miterlimit="10" stroke-linecap="round" stroke-linejoin="round"/>
    <path d="M90.1678 105.47C89.9341 106.518 89.2328 107.45 88.1808 107.566C87.012 107.799 86.1938 106.984 86.1938 106.984C85.7263 106.518 85.1419 105.586 85.6094 104.887C85.8432 104.421 86.5444 104.072 87.1289 104.305C87.3626 104.421 87.4795 104.654 87.5964 104.771" stroke="white" stroke-width="0.5" stroke-miterlimit="10" stroke-linecap="round" stroke-linejoin="round"/>
    <path d="M90.285 122.478C89.2331 120.73 88.0642 118.633 87.1292 116.304C86.5447 114.789 86.0772 113.275 85.7266 111.877" fill="white"/>
    <path d="M90.285 122.478C89.2331 120.73 88.0642 118.633 87.1292 116.304C86.5447 114.789 86.0772 113.275 85.7266 111.877" stroke="#005280" stroke-miterlimit="10" stroke-linecap="round" stroke-linejoin="round"/>
    <path d="M84.3242 133.428C85.0255 134.709 87.4801 134.476 87.8307 134.36C88.532 134.243 88.532 134.127 89.9346 133.894C91.2203 133.661 91.2203 133.777 92.1554 133.544C93.3242 133.311 93.4411 133.078 94.7268 132.729C95.7788 132.379 96.5969 132.379 97.2982 132.263C99.0515 132.03 102.558 131.68 104.779 129.117C105.246 128.535 106.298 127.952 105.831 126.904C105.48 126.089 104.779 125.739 103.259 125.623C101.74 125.506 101.506 126.788 101.623 127.836C101.623 128.069 101.857 128.768 101.857 128.884C101.857 129.35 101.272 129.816 100.571 129.583C99.9865 129.467 99.7528 128.884 99.4021 129.001C98.9346 129.117 99.1684 129.933 98.584 130.282C98.1164 130.515 97.7658 130.049 97.1814 130.399C96.7138 130.632 96.8307 130.865 96.3632 131.098C95.6619 131.331 95.0775 130.632 94.493 130.981C94.0255 131.214 94.2593 131.68 93.7917 131.797C93.3242 132.03 92.9736 131.447 92.3891 131.447C91.4541 131.447 91.4541 132.612 90.6359 132.612C89.9346 132.612 89.4671 131.564 88.8826 131.68C88.4151 131.797 88.4151 132.612 88.0645 132.612C87.3632 132.612 86.8956 130.049 86.0775 129.816C84.9086 129.7 83.6229 132.03 84.3242 133.428Z" fill="white" stroke="#432918" stroke-width="0.25" stroke-miterlimit="10"/>
    <path d="M72.869 105.469L70.2976 108.381C69.0118 109.896 66.5573 109.08 66.3235 107.1L65.856 101.741C65.7391 99.7608 67.9599 98.5959 69.5963 99.7608L72.6352 102.207C73.5703 103.023 73.6872 104.537 72.869 105.469Z" fill="white"/>
    <path d="M71.468 104.77C71.3511 108.381 68.429 111.177 65.0394 110.944C61.6498 110.828 59.0784 107.799 59.1952 104.188C59.3121 100.576 62.2342 97.7806 65.6238 98.0136C68.8965 98.1301 71.5848 101.159 71.468 104.77Z" fill="url(#paint1_linear_262_739)"/>
    <path d="M69.1753 104.94C69.2236 102.688 67.5363 100.826 65.4064 100.781C63.2766 100.736 61.5109 102.524 61.4625 104.775C61.4142 107.026 63.1016 108.888 65.2314 108.934C67.3612 108.979 69.1269 107.191 69.1753 104.94Z" fill="#191919"/>
    <path d="M68.5822 108.367C68.964 108.126 69.0496 107.578 68.7734 107.144C68.4971 106.709 67.9637 106.551 67.5819 106.792C67.2001 107.033 67.1146 107.581 67.3908 108.016C67.667 108.451 68.2005 108.608 68.5822 108.367Z" fill="white"/>
    <path d="M62.8367 103.14C63.4094 102.443 63.2259 101.349 62.4269 100.697C61.6279 100.045 60.5159 100.081 59.9432 100.777C59.3705 101.474 59.554 102.568 60.353 103.22C61.152 103.873 62.264 103.836 62.8367 103.14Z" fill="white"/>
    <path d="M101.389 96.5013L104.895 98.0157C106.765 98.8311 108.635 96.9673 107.934 95.1034L105.947 90.0942C105.246 88.2304 102.674 88.1139 101.739 89.9777L100.103 93.4725C99.6354 94.6374 100.103 96.0353 101.389 96.5013Z" fill="white"/>
    <path d="M102.323 95.219C103.96 98.3643 107.817 99.6457 110.739 98.0148C113.778 96.3839 114.713 92.5397 113.077 89.3944C111.44 86.2491 107.583 84.9677 104.661 86.5986C101.622 88.2295 100.57 92.0737 102.323 95.219Z" fill="url(#paint2_linear_262_739)"/>
    <path d="M109.696 96.4237C111.593 95.457 112.296 93.0482 111.268 91.0435C110.239 89.0387 107.868 88.1971 105.971 89.1638C104.075 90.1304 103.371 92.5392 104.4 94.544C105.428 96.5488 107.8 97.3903 109.696 96.4237Z" fill="#191919"/>
    <path d="M112.087 95.0099C112.145 94.4985 111.828 94.0428 111.379 93.992C110.93 93.9412 110.519 94.3146 110.461 94.826C110.403 95.3374 110.719 95.7931 111.168 95.8439C111.617 95.8947 112.029 95.5213 112.087 95.0099Z" fill="white"/>
    <path d="M104.793 90.0599C105.226 89.1256 104.913 88.0616 104.092 87.6836C103.272 87.3056 102.255 87.7566 101.822 88.691C101.389 89.6253 101.702 90.6893 102.522 91.0673C103.343 91.4453 104.359 90.9943 104.793 90.0599Z" fill="white"/>
    <path d="M57.7923 107.335C57.5585 107.335 57.2078 107.102 57.2078 106.869C56.5065 102.792 58.6104 98.5979 62.4676 96.734C66.3247 94.8701 71.0001 95.8021 73.8052 98.9474C74.039 99.1803 74.039 99.5298 73.8052 99.7628C73.5715 99.9958 73.2208 99.9958 72.9871 99.7628C70.5325 96.967 66.4416 96.1516 63.052 97.7824C59.7793 99.4133 57.9091 103.025 58.4936 106.636C58.3767 106.985 58.2598 107.218 57.7923 107.335Z" fill="url(#paint3_linear_262_739)"/>
    <path d="M115.416 93.5883C115.065 93.5883 114.832 93.3554 114.832 93.0059C114.481 89.2781 111.793 86.1328 108.286 85.4339C104.78 84.7349 101.273 86.4823 99.6369 89.6276C99.52 89.8606 99.1693 89.9771 98.8187 89.8606C98.5849 89.7441 98.468 89.3946 98.5849 89.0451C100.455 85.3174 104.546 83.337 108.52 84.1525C112.611 84.9679 115.65 88.5792 116.001 92.7729C116.001 93.2389 115.767 93.5883 115.416 93.5883Z" fill="url(#paint4_linear_262_739)"/>
    <path d="M66.1972 114.417C66.5244 113.646 65.3439 112.412 63.5605 111.659C61.7771 110.907 60.0661 110.921 59.7389 111.691C59.4117 112.462 60.5922 113.696 62.3756 114.449C64.159 115.201 65.87 115.187 66.1972 114.417Z" fill="#005280"/>
    <path d="M116.676 99.2441C118.218 98.0762 119.056 96.5896 118.548 95.9237C118.04 95.2577 116.379 95.6647 114.837 96.8326C113.295 98.0005 112.457 99.4871 112.964 100.153C113.472 100.819 115.134 100.412 116.676 99.2441Z" fill="#005280"/>
    <path d="M55.2209 96.7332C56.6235 96.9662 56.0391 93.2384 59.5456 87.8798C65.156 79.3758 69.13 77.3955 68.1949 74.8327C67.2599 72.3863 63.5196 73.7842 57.7923 70.2895C51.5975 66.5617 51.0131 62.0185 47.5066 62.135C44.7014 62.2515 40.3768 62.4845 39.9092 65.8628C39.2079 70.9884 44.4677 76.1141 48.091 85.084C50.7794 91.6075 53.4677 96.5002 55.2209 96.7332Z" fill="url(#paint5_linear_262_739)" stroke="#005280" stroke-width="0.25" stroke-miterlimit="10"/>
    <path d="M102.325 68.193C102.208 66.4456 106.532 60.9705 109.104 60.2715C117.052 57.9417 116.351 59.689 122.662 63.6498C127.104 66.4456 130.377 69.7074 129.325 70.0568C123.831 72.0372 123.013 77.5123 120.909 81.5896C119.506 84.2689 117.052 77.8618 111.792 74.0176C106.649 70.1733 102.558 70.2898 102.325 68.193Z" fill="url(#paint6_linear_262_739)" stroke="#005280" stroke-width="0.25" stroke-miterlimit="10"/>
    <path d="M108.402 55.9609C113.896 57.3588 120.324 61.6691 124.883 65.1638C127.571 67.2607 130.026 69.8235 131.896 71.8039" stroke="#005280" stroke-width="0.5" stroke-miterlimit="10" stroke-linecap="round" stroke-linejoin="round"/>
    <path d="M70.6495 75.1816C67.8443 76.929 60.8313 83.8021 57.7923 91.374C55.8053 96.1502 56.2728 101.159 56.0391 104.305" stroke="#005280" stroke-width="0.5" stroke-miterlimit="10" stroke-linecap="round" stroke-linejoin="round"/>
    <path d="M98.3496 68.6582C101.389 69.1242 106.765 70.5221 112.025 74.3663C121.025 81.0064 122.661 91.0247 123.363 93.8205" stroke="#005280" stroke-width="0.5" stroke-miterlimit="10" stroke-linecap="round" stroke-linejoin="round"/>
    <path d="M83.8569 133.661C83.6231 133.195 80.9348 135.758 77.4283 136.224C73.5711 136.806 68.7789 132.962 66.675 132.38C65.9737 132.147 69.714 136.69 70.4153 137.156C72.5192 138.67 76.9608 138.321 77.4283 138.204C80.9348 137.505 84.0906 134.127 83.8569 133.661Z" fill="#1E77B8" stroke="#005280" stroke-width="0.5" stroke-miterlimit="10"/>
    <defs>
        <linearGradient id="paint0_linear_262_739" x1="37" y1="25" x2="157.5" y2="178" gradientUnits="userSpaceOnUse">
            <stop stop-color="#6BBDF5"/>
            <stop offset="0.833933" stop-color="#ABE1FF"/>
        </linearGradient>
        <linearGradient id="paint1_linear_262_739" x1="59.1903" y1="104.963" x2="71.4127" y2="103.954" gradientUnits="userSpaceOnUse">
            <stop offset="0.2247" stop-color="#371815"/>
            <stop offset="0.3497" stop-color="#3A1917"/>
            <stop offset="0.4897" stop-color="#441D1B"/>
            <stop offset="0.6371" stop-color="#542423"/>
            <stop offset="0.7894" stop-color="#6C2F2D"/>
            <stop offset="0.9443" stop-color="#8D3F3C"/>
            <stop offset="0.9944" stop-color="#9A4642"/>
        </linearGradient>
        <linearGradient id="paint2_linear_262_739" x1="113.434" y1="90.1378" x2="102.006" y2="94.5751" gradientUnits="userSpaceOnUse">
            <stop offset="0.2247" stop-color="#371815"/>
            <stop offset="0.3497" stop-color="#3A1917"/>
            <stop offset="0.4897" stop-color="#441D1B"/>
            <stop offset="0.6371" stop-color="#542423"/>
            <stop offset="0.7894" stop-color="#6C2F2D"/>
            <stop offset="0.9443" stop-color="#8D3F3C"/>
            <stop offset="0.9944" stop-color="#9A4642"/>
        </linearGradient>
        <linearGradient id="paint3_linear_262_739" x1="58.9763" y1="108.484" x2="69.784" y2="95.5173" gradientUnits="userSpaceOnUse">
            <stop offset="0.2247" stop-color="#371815"/>
            <stop offset="0.3497" stop-color="#3A1917"/>
            <stop offset="0.4897" stop-color="#441D1B"/>
            <stop offset="0.6371" stop-color="#542423"/>
            <stop offset="0.7894" stop-color="#6C2F2D"/>
            <stop offset="0.9443" stop-color="#8D3F3C"/>
            <stop offset="0.9944" stop-color="#9A4642"/>
        </linearGradient>
        <linearGradient id="paint4_linear_262_739" x1="98.9993" y1="91.4966" x2="114.963" y2="87.8516" gradientUnits="userSpaceOnUse">
            <stop offset="0.2247" stop-color="#371815"/>
            <stop offset="0.3497" stop-color="#3A1917"/>
            <stop offset="0.4897" stop-color="#441D1B"/>
            <stop offset="0.6371" stop-color="#542423"/>
            <stop offset="0.7894" stop-color="#6C2F2D"/>
            <stop offset="0.9443" stop-color="#8D3F3C"/>
            <stop offset="0.9944" stop-color="#9A4642"/>
        </linearGradient>
        <linearGradient id="paint5_linear_262_739" x1="45.5307" y1="81.728" x2="65.7962" y2="70.3329" gradientUnits="userSpaceOnUse">
            <stop offset="0.0364583" stop-color="#005280"/>
            <stop offset="0.9944" stop-color="#197AB8"/>
        </linearGradient>
        <linearGradient id="paint6_linear_262_739" x1="106.477" y1="75.7889" x2="126.705" y2="64.415" gradientUnits="userSpaceOnUse">
            <stop offset="0.0364583" stop-color="#005280"/>
            <stop offset="0.9944" stop-color="#197AB8"/>
        </linearGradient>
    </defs>
</svg>