<svg width="1367" height="523" viewBox="0 0 1367 523" fill="none" xmlns="http://www.w3.org/2000/svg">
<g clip-path="url(#clip0_517_3)">
<path d="M167.56 50.1938V104.593C152.888 103.895 145.044 103.546 144.042 103.546C131.374 103.546 122.945 105.379 118.789 109.044C114.616 112.709 112.547 120.109 112.547 131.278V152.727H163.07V202.938H113.047V422.613H42.011V202.921H0V152.71H42.011V138.591C42.011 106.862 47.8375 84.9295 61.524 70.8104C75.1939 56.6913 97.8601 48.623 129.556 48.623C133.228 48.623 138.134 48.7103 142.306 48.8848C146.479 49.0594 151.052 49.3211 156.06 49.6702C161.067 50.0192 164.889 50.1938 167.56 50.1938Z" fill="#1091FC"/>
<path d="M274.087 50.1934V112.953H203.051V50.1934H274.087ZM274.087 152.71V422.595H203.051V152.71H274.087Z" fill="#1091FC"/>
<path d="M577.703 152.71V394.34C577.703 438.617 567.204 472.131 546.191 492.882C525.177 513.616 493.331 523 450.652 523C376.945 523 336.603 494.919 329.61 438.792H400.145C402.816 450.991 408.307 459.787 416.653 465.197C424.981 470.59 436.815 473.295 452.171 473.295C474.503 473.295 489.508 466.623 497.186 455.296C504.847 443.97 508.853 427.273 509.187 403.206L509.688 372.873C490.343 400.78 464.005 414.707 430.656 414.707C397.308 414.707 370.202 402.682 350.373 378.615C330.528 354.548 320.613 322.313 320.613 281.858C320.613 241.403 330.945 207.685 351.625 182.745C372.288 157.823 399.645 145.345 433.661 145.345C451.67 145.345 466.592 148.748 478.426 155.537C490.259 162.343 501.008 173.408 510.689 188.749V152.657H577.72L577.703 152.71ZM494.165 223.323C483.5 209.727 468.812 202.921 450.151 202.921C431.491 202.921 416.886 209.814 406.388 223.584C395.889 237.354 390.632 256.622 390.632 281.37C390.632 306.117 396.039 323.989 406.888 338.125C417.721 352.244 432.309 359.313 450.652 359.313C468.995 359.313 483.5 352.175 494.165 337.864C504.831 323.57 510.172 304.215 510.172 279.816C510.172 255.418 504.831 236.918 494.165 223.323Z" fill="#1091FC"/>
<path d="M1099.89 147.998V216.517C1089.89 214.423 1079.71 213.376 1071.38 213.376C1048.03 213.376 1031.86 221.142 1020.86 236.657C1009.86 252.173 1004.35 273.011 1004.35 299.155V422.579H933.316V152.711H1000.85V202.398C1017.86 165.084 1045.7 146.428 1084.39 146.428C1087.72 146.428 1092.88 146.951 1099.89 147.998Z" fill="#1091FC"/>
<path d="M1367 422.595H1294.96C1292.63 415.631 1290.96 406.905 1289.96 396.451C1268.27 419.122 1240.43 430.449 1206.42 430.449C1177.74 430.449 1155.23 423.206 1138.89 408.738C1122.55 394.27 1114.37 374.304 1114.37 348.858C1114.37 337.357 1115.79 327.252 1118.62 318.526C1121.46 309.817 1126.12 302.487 1132.63 296.553C1139.14 290.619 1145.3 285.75 1151.14 281.91C1156.98 278.071 1165.06 274.947 1175.39 272.503C1185.72 270.06 1194.07 268.245 1200.41 267.006C1206.73 265.784 1215.58 264.475 1226.91 263.079C1251.93 259.588 1268.67 255.941 1277.19 252.101C1285.68 248.262 1289.94 241.124 1289.94 230.652C1289.94 206.603 1274.43 194.56 1243.42 194.56C1227.08 194.56 1215.08 197.614 1207.4 203.705C1199.72 209.814 1194.73 220.53 1192.4 235.87H1125.87C1129.87 175.205 1169.71 144.855 1245.41 144.855C1321.1 144.855 1357.95 174.141 1357.95 232.729V349.364C1357.95 383.536 1360.96 407.935 1366.97 422.595H1367ZM1289.47 291.317C1281.13 296.553 1264.47 301.248 1239.45 305.436C1218.43 308.927 1204.77 313.29 1198.44 318.508C1191.1 325.14 1187.44 334.198 1187.44 345.699C1187.44 357.2 1190.86 365.665 1197.69 372.105C1204.51 378.562 1214.11 381.774 1226.45 381.774C1245.46 381.774 1260.71 376.468 1272.21 365.822C1283.71 355.193 1289.47 341.463 1289.47 322.632V291.3V291.317Z" fill="#1091FC"/>
<path d="M754.405 157.683C777.432 157.683 796.099 138.164 796.099 114.087C796.099 90.009 777.432 70.4902 754.405 70.4902C731.378 70.4902 712.711 90.009 712.711 114.087C712.711 138.164 731.378 157.683 754.405 157.683Z" fill="#1091FC"/>
<path d="M745.948 426.278H717.757V249.169L622.352 163.722L640.695 141.348L745.948 235.609V426.278Z" fill="#1091FC"/>
<path d="M695.848 426.82H665.471V272.714L587.508 205.766L606.786 181.228L695.848 257.687V426.82Z" fill="#1091FC"/>
<path d="M799.264 426.278H768.887V227.476L890.797 0L917.302 15.5328L799.264 235.766V426.278Z" fill="#1091FC"/>
<path d="M851.5 426.819H821.105V242.136L933.652 27.6968L960.274 42.9852L851.5 250.286V426.819Z" fill="#1091FC"/>
</g>
<defs>
<clipPath id="clip0_517_3">
<rect width="1367" height="523" fill="white"/>
</clipPath>
</defs>
</svg>
